<mxfile host="app.diagrams.net" modified="2023-04-05T07:50:34.597Z" agent="5.0 (X11; Linux x86_64) AppleWebKit/537.36 (KHTML, like Gecko) Chrome/111.0.0.0 Safari/537.36" etag="jMF_RpyCZU5TRiYcJaT3" version="21.0.6" type="github" pages="2">
  <diagram name="ECG File Export" id="_yZj62N8C_kcqael2udg">
    <mxGraphModel dx="1430" dy="1926" grid="1" gridSize="10" guides="1" tooltips="1" connect="1" arrows="1" fold="1" page="1" pageScale="1" pageWidth="827" pageHeight="1169" math="0" shadow="0">
      <root>
        <mxCell id="0" />
        <mxCell id="1" parent="0" />
        <mxCell id="CSpuEk093SgQwzf7VMwj-12" value="" style="shape=note;whiteSpace=wrap;html=1;backgroundOutline=1;darkOpacity=0.05;fontFamily=Courier New;size=17;" parent="1" vertex="1">
          <mxGeometry x="30" y="870" width="340" height="210" as="geometry" />
        </mxCell>
        <mxCell id="C3bBaJy5AQeNSz8MlV_v-10" value="" style="rounded=1;whiteSpace=wrap;html=1;fillColor=#f8cecc;strokeColor=#b85450;arcSize=4;" parent="1" vertex="1">
          <mxGeometry y="40" width="180" height="340" as="geometry" />
        </mxCell>
        <mxCell id="C3bBaJy5AQeNSz8MlV_v-9" value="" style="rounded=1;whiteSpace=wrap;html=1;fillColor=#fff2cc;strokeColor=#d6b656;arcSize=3;" parent="1" vertex="1">
          <mxGeometry x="360" y="420" width="230" height="440" as="geometry" />
        </mxCell>
        <mxCell id="C3bBaJy5AQeNSz8MlV_v-6" style="edgeStyle=orthogonalEdgeStyle;rounded=0;orthogonalLoop=1;jettySize=auto;html=1;entryX=0.5;entryY=0;entryDx=0;entryDy=0;" parent="1" target="C3bBaJy5AQeNSz8MlV_v-5" edge="1">
          <mxGeometry relative="1" as="geometry">
            <mxPoint x="85" y="10" as="sourcePoint" />
          </mxGeometry>
        </mxCell>
        <mxCell id="C3bBaJy5AQeNSz8MlV_v-2" value="Logged User (GAIA)" style="shape=umlActor;verticalLabelPosition=bottom;verticalAlign=top;html=1;outlineConnect=0;fontStyle=1" parent="1" vertex="1">
          <mxGeometry x="70" y="-70" width="30" height="60" as="geometry" />
        </mxCell>
        <mxCell id="C3bBaJy5AQeNSz8MlV_v-14" style="edgeStyle=orthogonalEdgeStyle;rounded=0;orthogonalLoop=1;jettySize=auto;html=1;exitX=0.5;exitY=1;exitDx=0;exitDy=0;entryX=0.5;entryY=0;entryDx=0;entryDy=0;" parent="1" source="C3bBaJy5AQeNSz8MlV_v-5" target="C3bBaJy5AQeNSz8MlV_v-13" edge="1">
          <mxGeometry relative="1" as="geometry" />
        </mxCell>
        <mxCell id="C3bBaJy5AQeNSz8MlV_v-5" value="Request ECG Data&lt;br&gt;start_day&lt;br&gt;end_day" style="rounded=1;whiteSpace=wrap;html=1;" parent="1" vertex="1">
          <mxGeometry x="25" y="90" width="120" height="60" as="geometry" />
        </mxCell>
        <mxCell id="C3bBaJy5AQeNSz8MlV_v-11" value="TeMoCo" style="text;html=1;strokeColor=none;fillColor=none;align=center;verticalAlign=middle;whiteSpace=wrap;rounded=0;fontStyle=5" parent="1" vertex="1">
          <mxGeometry y="40" width="80" height="30" as="geometry" />
        </mxCell>
        <mxCell id="C3bBaJy5AQeNSz8MlV_v-13" value="REST API Call" style="rounded=1;whiteSpace=wrap;html=1;" parent="1" vertex="1">
          <mxGeometry x="25" y="210" width="120" height="60" as="geometry" />
        </mxCell>
        <mxCell id="C3bBaJy5AQeNSz8MlV_v-15" value="account_id&lt;br&gt;API KEY&lt;br&gt;START-DAY&lt;br&gt;END DAY" style="text;html=1;strokeColor=none;fillColor=none;align=left;verticalAlign=middle;whiteSpace=wrap;rounded=0;" parent="1" vertex="1">
          <mxGeometry x="210" y="177.5" width="90" height="65" as="geometry" />
        </mxCell>
        <mxCell id="C3bBaJy5AQeNSz8MlV_v-22" style="edgeStyle=orthogonalEdgeStyle;rounded=0;orthogonalLoop=1;jettySize=auto;html=1;" parent="1" source="ra9UnzA4Zn_O7k4LG4pP-5" target="ra9UnzA4Zn_O7k4LG4pP-6" edge="1">
          <mxGeometry relative="1" as="geometry">
            <mxPoint x="340" y="490.0344827586207" as="sourcePoint" />
          </mxGeometry>
        </mxCell>
        <mxCell id="qn0c7bilrQK2VG8PuVGu-1" style="edgeStyle=orthogonalEdgeStyle;rounded=0;orthogonalLoop=1;jettySize=auto;html=1;entryX=1;entryY=0.3333333333333333;entryDx=0;entryDy=0;entryPerimeter=0;" parent="1" source="C3bBaJy5AQeNSz8MlV_v-18" target="C3bBaJy5AQeNSz8MlV_v-2" edge="1">
          <mxGeometry relative="1" as="geometry">
            <Array as="points">
              <mxPoint x="650" y="-50" />
            </Array>
          </mxGeometry>
        </mxCell>
        <mxCell id="C3bBaJy5AQeNSz8MlV_v-18" value="" style="sketch=0;outlineConnect=0;fontColor=#232F3E;gradientColor=none;strokeColor=#232F3E;fillColor=#ffffff;dashed=0;verticalLabelPosition=bottom;verticalAlign=top;align=center;html=1;fontSize=12;fontStyle=0;aspect=fixed;shape=mxgraph.aws4.resourceIcon;resIcon=mxgraph.aws4.email;" parent="1" vertex="1">
          <mxGeometry x="620" y="-30" width="60" height="60" as="geometry" />
        </mxCell>
        <mxCell id="C3bBaJy5AQeNSz8MlV_v-20" value="" style="sketch=0;pointerEvents=1;shadow=0;dashed=0;html=1;strokeColor=#A50040;fillColor=#d80073;labelPosition=center;verticalLabelPosition=bottom;verticalAlign=top;align=center;outlineConnect=0;shape=mxgraph.veeam2.s3_compatible;fontColor=#ffffff;" parent="1" vertex="1">
          <mxGeometry x="433" y="770" width="60" height="59" as="geometry" />
        </mxCell>
        <mxCell id="C3bBaJy5AQeNSz8MlV_v-23" value="QUEUE" style="text;html=1;strokeColor=none;fillColor=none;align=left;verticalAlign=middle;whiteSpace=wrap;rounded=0;fontStyle=1" parent="1" vertex="1">
          <mxGeometry x="510" y="436.5" width="40" height="35" as="geometry" />
        </mxCell>
        <mxCell id="C3bBaJy5AQeNSz8MlV_v-25" style="edgeStyle=orthogonalEdgeStyle;rounded=0;orthogonalLoop=1;jettySize=auto;html=1;" parent="1" source="ra9UnzA4Zn_O7k4LG4pP-6" target="C3bBaJy5AQeNSz8MlV_v-20" edge="1">
          <mxGeometry relative="1" as="geometry">
            <mxPoint x="460" y="630" as="sourcePoint" />
          </mxGeometry>
        </mxCell>
        <mxCell id="C3bBaJy5AQeNSz8MlV_v-29" value="" style="verticalLabelPosition=bottom;html=1;verticalAlign=top;strokeWidth=1;align=center;outlineConnect=0;dashed=0;outlineConnect=0;shape=mxgraph.aws3d.file;aspect=fixed;strokeColor=#292929;" parent="1" vertex="1">
          <mxGeometry x="470" y="640" width="10.8" height="24.76" as="geometry" />
        </mxCell>
        <mxCell id="C3bBaJy5AQeNSz8MlV_v-30" value="" style="verticalLabelPosition=bottom;html=1;verticalAlign=top;strokeWidth=1;align=center;outlineConnect=0;dashed=0;outlineConnect=0;shape=mxgraph.aws3d.file;aspect=fixed;strokeColor=#292929;" parent="1" vertex="1">
          <mxGeometry x="470" y="700" width="10.8" height="24.76" as="geometry" />
        </mxCell>
        <mxCell id="C3bBaJy5AQeNSz8MlV_v-31" value="" style="verticalLabelPosition=bottom;html=1;verticalAlign=top;strokeWidth=1;align=center;outlineConnect=0;dashed=0;outlineConnect=0;shape=mxgraph.aws3d.file;aspect=fixed;strokeColor=#292929;" parent="1" vertex="1">
          <mxGeometry x="470" y="670" width="10.8" height="24.76" as="geometry" />
        </mxCell>
        <mxCell id="C3bBaJy5AQeNSz8MlV_v-32" value="email to user: &lt;i&gt;&quot;files ready&quot;&lt;/i&gt;" style="text;html=1;strokeColor=none;fillColor=none;align=left;verticalAlign=middle;whiteSpace=wrap;rounded=0;" parent="1" vertex="1">
          <mxGeometry x="620" y="46.25" width="90" height="17.5" as="geometry" />
        </mxCell>
        <mxCell id="qn0c7bilrQK2VG8PuVGu-5" value="S3 STORAGE" style="text;html=1;strokeColor=none;fillColor=none;align=left;verticalAlign=middle;whiteSpace=wrap;rounded=0;fontStyle=1" parent="1" vertex="1">
          <mxGeometry x="390" y="820" width="90" height="35" as="geometry" />
        </mxCell>
        <mxCell id="qn0c7bilrQK2VG8PuVGu-6" value="00 ECG file" style="text;html=1;strokeColor=none;fillColor=none;align=left;verticalAlign=middle;whiteSpace=wrap;rounded=0;" parent="1" vertex="1">
          <mxGeometry x="490" y="640" width="80" height="22.5" as="geometry" />
        </mxCell>
        <mxCell id="qn0c7bilrQK2VG8PuVGu-7" value="01 ECG file" style="text;html=1;strokeColor=none;fillColor=none;align=left;verticalAlign=middle;whiteSpace=wrap;rounded=0;" parent="1" vertex="1">
          <mxGeometry x="490" y="672.26" width="80" height="22.5" as="geometry" />
        </mxCell>
        <mxCell id="qn0c7bilrQK2VG8PuVGu-8" value="..." style="text;html=1;strokeColor=none;fillColor=none;align=left;verticalAlign=middle;whiteSpace=wrap;rounded=0;" parent="1" vertex="1">
          <mxGeometry x="490" y="702.26" width="50" height="22.5" as="geometry" />
        </mxCell>
        <mxCell id="CSpuEk093SgQwzf7VMwj-53" style="edgeStyle=orthogonalEdgeStyle;rounded=0;orthogonalLoop=1;jettySize=auto;html=1;entryX=0;entryY=0.5;entryDx=0;entryDy=0;fontFamily=Courier New;" parent="1" source="CSpuEk093SgQwzf7VMwj-2" target="CSpuEk093SgQwzf7VMwj-14" edge="1">
          <mxGeometry relative="1" as="geometry" />
        </mxCell>
        <mxCell id="CSpuEk093SgQwzf7VMwj-2" value="2022/11/02/14/device_id/account_id.pickle" style="text;html=1;strokeColor=none;fillColor=none;align=left;verticalAlign=middle;whiteSpace=wrap;rounded=0;fontFamily=Courier New;fontStyle=1" parent="1" vertex="1">
          <mxGeometry x="40" y="890" width="320" height="30" as="geometry" />
        </mxCell>
        <mxCell id="CSpuEk093SgQwzf7VMwj-6" style="edgeStyle=orthogonalEdgeStyle;rounded=0;orthogonalLoop=1;jettySize=auto;html=1;" parent="1" source="CSpuEk093SgQwzf7VMwj-4" target="ra9UnzA4Zn_O7k4LG4pP-3" edge="1">
          <mxGeometry relative="1" as="geometry" />
        </mxCell>
        <mxCell id="CSpuEk093SgQwzf7VMwj-4" value="" style="shape=image;html=1;verticalAlign=top;verticalLabelPosition=bottom;labelBackgroundColor=#ffffff;imageAspect=0;aspect=fixed;image=https://cdn1.iconfinder.com/data/icons/Futurosoft%20Icons%200.5.2/128x128/apps/clock.png" parent="1" vertex="1">
          <mxGeometry x="62" y="421" width="66" height="67" as="geometry" />
        </mxCell>
        <mxCell id="CSpuEk093SgQwzf7VMwj-5" value="job every day" style="text;html=1;strokeColor=none;fillColor=none;align=left;verticalAlign=middle;whiteSpace=wrap;rounded=0;" parent="1" vertex="1">
          <mxGeometry x="60" y="489" width="80" height="22.5" as="geometry" />
        </mxCell>
        <mxCell id="CSpuEk093SgQwzf7VMwj-8" value="2022/11/02/14/device_id/account_id.pickle" style="text;html=1;strokeColor=none;fillColor=none;align=left;verticalAlign=middle;whiteSpace=wrap;rounded=0;fontFamily=Courier New;fontStyle=1" parent="1" vertex="1">
          <mxGeometry x="40" y="910" width="180" height="30" as="geometry" />
        </mxCell>
        <mxCell id="CSpuEk093SgQwzf7VMwj-9" value="2022/11/02/14/device_id/account_id.pickle" style="text;html=1;strokeColor=none;fillColor=none;align=left;verticalAlign=middle;whiteSpace=wrap;rounded=0;fontFamily=Courier New;fontStyle=1" parent="1" vertex="1">
          <mxGeometry x="40" y="930" width="320" height="30" as="geometry" />
        </mxCell>
        <mxCell id="CSpuEk093SgQwzf7VMwj-10" value="2022/11/02/14/device_id/account_id.pickle" style="text;html=1;strokeColor=none;fillColor=none;align=left;verticalAlign=middle;whiteSpace=wrap;rounded=0;fontFamily=Courier New;fontStyle=1" parent="1" vertex="1">
          <mxGeometry x="40" y="990" width="180" height="30" as="geometry" />
        </mxCell>
        <mxCell id="CSpuEk093SgQwzf7VMwj-11" value="" style="shape=image;html=1;verticalAlign=top;verticalLabelPosition=bottom;labelBackgroundColor=#ffffff;imageAspect=0;aspect=fixed;image=https://cdn4.iconfinder.com/data/icons/essential-app-1/16/dot-more-menu-hide-128.png;fontFamily=Courier New;rotation=-90;" parent="1" vertex="1">
          <mxGeometry x="110" y="960" width="20" height="20" as="geometry" />
        </mxCell>
        <mxCell id="CSpuEk093SgQwzf7VMwj-13" value="s" style="childLayout=tableLayout;recursiveResize=0;strokeColor=#98bf21;fillColor=#A7C942;shadow=1;fontFamily=Courier New;" parent="1" vertex="1">
          <mxGeometry x="451" y="888" width="249" height="160" as="geometry" />
        </mxCell>
        <mxCell id="CSpuEk093SgQwzf7VMwj-14" style="shape=tableRow;horizontal=0;startSize=0;swimlaneHead=0;swimlaneBody=0;top=0;left=0;bottom=0;right=0;dropTarget=0;collapsible=0;recursiveResize=0;expand=0;fontStyle=0;strokeColor=inherit;fillColor=#ffffff;fontFamily=Courier New;" parent="CSpuEk093SgQwzf7VMwj-13" vertex="1">
          <mxGeometry width="249" height="33" as="geometry" />
        </mxCell>
        <mxCell id="CSpuEk093SgQwzf7VMwj-15" value="" style="connectable=0;recursiveResize=0;strokeColor=inherit;fillColor=#A7C942;align=center;fontStyle=1;fontColor=#FFFFFF;html=1;fontFamily=Courier New;" parent="CSpuEk093SgQwzf7VMwj-14" vertex="1">
          <mxGeometry width="18" height="33" as="geometry">
            <mxRectangle width="18" height="33" as="alternateBounds" />
          </mxGeometry>
        </mxCell>
        <mxCell id="CSpuEk093SgQwzf7VMwj-16" value="Timstamp" style="connectable=0;recursiveResize=0;strokeColor=inherit;fillColor=#A7C942;align=center;fontStyle=1;fontColor=#FFFFFF;html=1;fontFamily=Courier New;" parent="CSpuEk093SgQwzf7VMwj-14" vertex="1">
          <mxGeometry x="18" width="148" height="33" as="geometry">
            <mxRectangle width="148" height="33" as="alternateBounds" />
          </mxGeometry>
        </mxCell>
        <mxCell id="CSpuEk093SgQwzf7VMwj-17" value="ECG Value" style="connectable=0;recursiveResize=0;strokeColor=inherit;fillColor=#A7C942;align=center;fontStyle=1;fontColor=#FFFFFF;html=1;fontFamily=Courier New;" parent="CSpuEk093SgQwzf7VMwj-14" vertex="1">
          <mxGeometry x="166" width="83" height="33" as="geometry">
            <mxRectangle width="83" height="33" as="alternateBounds" />
          </mxGeometry>
        </mxCell>
        <mxCell id="CSpuEk093SgQwzf7VMwj-18" value="" style="shape=tableRow;horizontal=0;startSize=0;swimlaneHead=0;swimlaneBody=0;top=0;left=0;bottom=0;right=0;dropTarget=0;collapsible=0;recursiveResize=0;expand=0;fontStyle=0;strokeColor=inherit;fillColor=#ffffff;fontFamily=Courier New;" parent="CSpuEk093SgQwzf7VMwj-13" vertex="1">
          <mxGeometry y="33" width="249" height="32" as="geometry" />
        </mxCell>
        <mxCell id="CSpuEk093SgQwzf7VMwj-19" value="" style="connectable=0;recursiveResize=0;strokeColor=inherit;fillColor=inherit;align=center;whiteSpace=wrap;html=1;fontFamily=Courier New;" parent="CSpuEk093SgQwzf7VMwj-18" vertex="1">
          <mxGeometry width="18" height="32" as="geometry">
            <mxRectangle width="18" height="32" as="alternateBounds" />
          </mxGeometry>
        </mxCell>
        <mxCell id="CSpuEk093SgQwzf7VMwj-20" value="1677707142" style="connectable=0;recursiveResize=0;strokeColor=inherit;fillColor=inherit;align=center;whiteSpace=wrap;html=1;fontFamily=Courier New;" parent="CSpuEk093SgQwzf7VMwj-18" vertex="1">
          <mxGeometry x="18" width="148" height="32" as="geometry">
            <mxRectangle width="148" height="32" as="alternateBounds" />
          </mxGeometry>
        </mxCell>
        <mxCell id="CSpuEk093SgQwzf7VMwj-21" value="56" style="connectable=0;recursiveResize=0;strokeColor=inherit;fillColor=inherit;align=center;whiteSpace=wrap;html=1;fontFamily=Courier New;" parent="CSpuEk093SgQwzf7VMwj-18" vertex="1">
          <mxGeometry x="166" width="83" height="32" as="geometry">
            <mxRectangle width="83" height="32" as="alternateBounds" />
          </mxGeometry>
        </mxCell>
        <mxCell id="CSpuEk093SgQwzf7VMwj-22" value="" style="shape=tableRow;horizontal=0;startSize=0;swimlaneHead=0;swimlaneBody=0;top=0;left=0;bottom=0;right=0;dropTarget=0;collapsible=0;recursiveResize=0;expand=0;fontStyle=1;strokeColor=inherit;fillColor=#EAF2D3;fontFamily=Courier New;" parent="CSpuEk093SgQwzf7VMwj-13" vertex="1">
          <mxGeometry y="65" width="249" height="31" as="geometry" />
        </mxCell>
        <mxCell id="CSpuEk093SgQwzf7VMwj-23" value="" style="connectable=0;recursiveResize=0;strokeColor=inherit;fillColor=inherit;whiteSpace=wrap;html=1;fontFamily=Courier New;" parent="CSpuEk093SgQwzf7VMwj-22" vertex="1">
          <mxGeometry width="18" height="31" as="geometry">
            <mxRectangle width="18" height="31" as="alternateBounds" />
          </mxGeometry>
        </mxCell>
        <mxCell id="CSpuEk093SgQwzf7VMwj-24" value="1677707170" style="connectable=0;recursiveResize=0;strokeColor=inherit;fillColor=inherit;whiteSpace=wrap;html=1;fontFamily=Courier New;" parent="CSpuEk093SgQwzf7VMwj-22" vertex="1">
          <mxGeometry x="18" width="148" height="31" as="geometry">
            <mxRectangle width="148" height="31" as="alternateBounds" />
          </mxGeometry>
        </mxCell>
        <mxCell id="CSpuEk093SgQwzf7VMwj-25" value="57" style="connectable=0;recursiveResize=0;strokeColor=inherit;fillColor=inherit;whiteSpace=wrap;html=1;fontFamily=Courier New;" parent="CSpuEk093SgQwzf7VMwj-22" vertex="1">
          <mxGeometry x="166" width="83" height="31" as="geometry">
            <mxRectangle width="83" height="31" as="alternateBounds" />
          </mxGeometry>
        </mxCell>
        <mxCell id="CSpuEk093SgQwzf7VMwj-26" value="" style="shape=tableRow;horizontal=0;startSize=0;swimlaneHead=0;swimlaneBody=0;top=0;left=0;bottom=0;right=0;dropTarget=0;collapsible=0;recursiveResize=0;expand=0;fontStyle=0;strokeColor=inherit;fillColor=#ffffff;fontFamily=Courier New;" parent="CSpuEk093SgQwzf7VMwj-13" vertex="1">
          <mxGeometry y="96" width="249" height="33" as="geometry" />
        </mxCell>
        <mxCell id="CSpuEk093SgQwzf7VMwj-27" value="" style="connectable=0;recursiveResize=0;strokeColor=inherit;fillColor=inherit;fontStyle=0;align=center;whiteSpace=wrap;html=1;fontFamily=Courier New;" parent="CSpuEk093SgQwzf7VMwj-26" vertex="1">
          <mxGeometry width="18" height="33" as="geometry">
            <mxRectangle width="18" height="33" as="alternateBounds" />
          </mxGeometry>
        </mxCell>
        <mxCell id="CSpuEk093SgQwzf7VMwj-28" value="1677707172" style="connectable=0;recursiveResize=0;strokeColor=inherit;fillColor=inherit;fontStyle=0;align=center;whiteSpace=wrap;html=1;fontFamily=Courier New;" parent="CSpuEk093SgQwzf7VMwj-26" vertex="1">
          <mxGeometry x="18" width="148" height="33" as="geometry">
            <mxRectangle width="148" height="33" as="alternateBounds" />
          </mxGeometry>
        </mxCell>
        <mxCell id="CSpuEk093SgQwzf7VMwj-29" value="80" style="connectable=0;recursiveResize=0;strokeColor=inherit;fillColor=inherit;fontStyle=0;align=center;whiteSpace=wrap;html=1;fontFamily=Courier New;" parent="CSpuEk093SgQwzf7VMwj-26" vertex="1">
          <mxGeometry x="166" width="83" height="33" as="geometry">
            <mxRectangle width="83" height="33" as="alternateBounds" />
          </mxGeometry>
        </mxCell>
        <mxCell id="CSpuEk093SgQwzf7VMwj-30" value="" style="shape=tableRow;horizontal=0;startSize=0;swimlaneHead=0;swimlaneBody=0;top=0;left=0;bottom=0;right=0;dropTarget=0;collapsible=0;recursiveResize=0;expand=0;fontStyle=1;strokeColor=inherit;fillColor=#EAF2D3;fontFamily=Courier New;" parent="CSpuEk093SgQwzf7VMwj-13" vertex="1">
          <mxGeometry y="129" width="249" height="31" as="geometry" />
        </mxCell>
        <mxCell id="CSpuEk093SgQwzf7VMwj-31" value="" style="connectable=0;recursiveResize=0;strokeColor=inherit;fillColor=inherit;whiteSpace=wrap;html=1;fontFamily=Courier New;" parent="CSpuEk093SgQwzf7VMwj-30" vertex="1">
          <mxGeometry width="18" height="31" as="geometry">
            <mxRectangle width="18" height="31" as="alternateBounds" />
          </mxGeometry>
        </mxCell>
        <mxCell id="CSpuEk093SgQwzf7VMwj-32" value="1677707175" style="connectable=0;recursiveResize=0;strokeColor=inherit;fillColor=inherit;whiteSpace=wrap;html=1;fontFamily=Courier New;" parent="CSpuEk093SgQwzf7VMwj-30" vertex="1">
          <mxGeometry x="18" width="148" height="31" as="geometry">
            <mxRectangle width="148" height="31" as="alternateBounds" />
          </mxGeometry>
        </mxCell>
        <mxCell id="CSpuEk093SgQwzf7VMwj-33" value="119" style="connectable=0;recursiveResize=0;strokeColor=inherit;fillColor=inherit;whiteSpace=wrap;html=1;fontFamily=Courier New;" parent="CSpuEk093SgQwzf7VMwj-30" vertex="1">
          <mxGeometry x="166" width="83" height="31" as="geometry">
            <mxRectangle width="83" height="31" as="alternateBounds" />
          </mxGeometry>
        </mxCell>
        <mxCell id="ra9UnzA4Zn_O7k4LG4pP-1" value="23 ECG file" style="text;html=1;strokeColor=none;fillColor=none;align=left;verticalAlign=middle;whiteSpace=wrap;rounded=0;" vertex="1" parent="1">
          <mxGeometry x="490" y="730" width="80" height="22.5" as="geometry" />
        </mxCell>
        <mxCell id="ra9UnzA4Zn_O7k4LG4pP-2" value="" style="verticalLabelPosition=bottom;html=1;verticalAlign=top;strokeWidth=1;align=center;outlineConnect=0;dashed=0;outlineConnect=0;shape=mxgraph.aws3d.file;aspect=fixed;strokeColor=#292929;" vertex="1" parent="1">
          <mxGeometry x="470" y="730" width="10.8" height="24.76" as="geometry" />
        </mxCell>
        <mxCell id="ra9UnzA4Zn_O7k4LG4pP-4" style="edgeStyle=orthogonalEdgeStyle;rounded=0;orthogonalLoop=1;jettySize=auto;html=1;entryX=0;entryY=0.5;entryDx=0;entryDy=0;entryPerimeter=0;" edge="1" parent="1" source="ra9UnzA4Zn_O7k4LG4pP-3" target="ra9UnzA4Zn_O7k4LG4pP-5">
          <mxGeometry relative="1" as="geometry">
            <mxPoint x="250" y="490" as="targetPoint" />
          </mxGeometry>
        </mxCell>
        <mxCell id="ra9UnzA4Zn_O7k4LG4pP-3" value="" style="outlineConnect=0;dashed=0;verticalLabelPosition=bottom;verticalAlign=top;align=center;html=1;shape=mxgraph.aws3.lambda_function;fillColor=#F58534;gradientColor=none;rotation=0;" vertex="1" parent="1">
          <mxGeometry x="180" y="430" width="50" height="49" as="geometry" />
        </mxCell>
        <mxCell id="ra9UnzA4Zn_O7k4LG4pP-5" value="" style="outlineConnect=0;dashed=0;verticalLabelPosition=bottom;verticalAlign=top;align=center;html=1;shape=mxgraph.aws3.queue;fillColor=#D9A741;gradientColor=none;" vertex="1" parent="1">
          <mxGeometry x="426.5" y="430" width="73.5" height="48" as="geometry" />
        </mxCell>
        <mxCell id="ra9UnzA4Zn_O7k4LG4pP-6" value="" style="outlineConnect=0;dashed=0;verticalLabelPosition=bottom;verticalAlign=top;align=center;html=1;shape=mxgraph.aws3.lambda_function;fillColor=#F58534;gradientColor=none;rotation=0;" vertex="1" parent="1">
          <mxGeometry x="438.65" y="530" width="50" height="50" as="geometry" />
        </mxCell>
        <mxCell id="ra9UnzA4Zn_O7k4LG4pP-7" value="make &lt;br&gt;24 x n_devices jobs" style="text;html=1;strokeColor=none;fillColor=none;align=left;verticalAlign=middle;whiteSpace=wrap;rounded=0;fontStyle=3" vertex="1" parent="1">
          <mxGeometry x="240" y="464.5" width="100" height="22.5" as="geometry" />
        </mxCell>
        <mxCell id="ra9UnzA4Zn_O7k4LG4pP-8" value="make report" style="text;html=1;strokeColor=none;fillColor=none;align=left;verticalAlign=middle;whiteSpace=wrap;rounded=0;fontStyle=3" vertex="1" parent="1">
          <mxGeometry x="490.8" y="530" width="89.2" height="35" as="geometry" />
        </mxCell>
        <mxCell id="ra9UnzA4Zn_O7k4LG4pP-12" value="S3 FILE" style="text;html=1;strokeColor=none;fillColor=none;align=left;verticalAlign=middle;whiteSpace=wrap;rounded=0;fontStyle=1" vertex="1" parent="1">
          <mxGeometry x="451" y="860" width="90" height="35" as="geometry" />
        </mxCell>
        <mxCell id="ra9UnzA4Zn_O7k4LG4pP-13" value="" style="sketch=0;points=[[0,0,0],[0.25,0,0],[0.5,0,0],[0.75,0,0],[1,0,0],[0,1,0],[0.25,1,0],[0.5,1,0],[0.75,1,0],[1,1,0],[0,0.25,0],[0,0.5,0],[0,0.75,0],[1,0.25,0],[1,0.5,0],[1,0.75,0]];outlineConnect=0;fontColor=#232F3E;gradientColor=#FF4F8B;gradientDirection=north;fillColor=#BC1356;strokeColor=#ffffff;dashed=0;verticalLabelPosition=bottom;verticalAlign=top;align=center;html=1;fontSize=12;fontStyle=0;aspect=fixed;shape=mxgraph.aws4.resourceIcon;resIcon=mxgraph.aws4.eventbridge;" vertex="1" parent="1">
          <mxGeometry x="25" y="546" width="78" height="78" as="geometry" />
        </mxCell>
        <mxCell id="ra9UnzA4Zn_O7k4LG4pP-14" value="Assets" style="childLayout=tableLayout;recursiveResize=0;strokeColor=#b85450;fillColor=#f8cecc;shadow=1;" vertex="1" parent="1">
          <mxGeometry x="860" y="890" width="280" height="160" as="geometry" />
        </mxCell>
        <mxCell id="ra9UnzA4Zn_O7k4LG4pP-15" style="shape=tableRow;horizontal=0;startSize=0;swimlaneHead=0;swimlaneBody=0;top=0;left=0;bottom=0;right=0;dropTarget=0;collapsible=0;recursiveResize=0;expand=0;fontStyle=0;strokeColor=inherit;fillColor=#ffffff;" vertex="1" parent="ra9UnzA4Zn_O7k4LG4pP-14">
          <mxGeometry width="280" height="33" as="geometry" />
        </mxCell>
        <mxCell id="ra9UnzA4Zn_O7k4LG4pP-16" value="File" style="connectable=0;recursiveResize=0;strokeColor=#b85450;fillColor=#f8cecc;align=center;fontStyle=1;html=1;" vertex="1" parent="ra9UnzA4Zn_O7k4LG4pP-15">
          <mxGeometry width="93" height="33" as="geometry">
            <mxRectangle width="93" height="33" as="alternateBounds" />
          </mxGeometry>
        </mxCell>
        <mxCell id="ra9UnzA4Zn_O7k4LG4pP-17" value="N_ROWS" style="connectable=0;recursiveResize=0;strokeColor=#b85450;fillColor=#f8cecc;align=center;fontStyle=1;html=1;" vertex="1" parent="ra9UnzA4Zn_O7k4LG4pP-15">
          <mxGeometry x="93" width="94" height="33" as="geometry">
            <mxRectangle width="94" height="33" as="alternateBounds" />
          </mxGeometry>
        </mxCell>
        <mxCell id="ra9UnzA4Zn_O7k4LG4pP-18" value="" style="connectable=0;recursiveResize=0;strokeColor=#b85450;fillColor=#f8cecc;align=center;fontStyle=1;html=1;" vertex="1" parent="ra9UnzA4Zn_O7k4LG4pP-15">
          <mxGeometry x="187" width="93" height="33" as="geometry">
            <mxRectangle width="93" height="33" as="alternateBounds" />
          </mxGeometry>
        </mxCell>
        <mxCell id="ra9UnzA4Zn_O7k4LG4pP-19" value="" style="shape=tableRow;horizontal=0;startSize=0;swimlaneHead=0;swimlaneBody=0;top=0;left=0;bottom=0;right=0;dropTarget=0;collapsible=0;recursiveResize=0;expand=0;fontStyle=0;strokeColor=inherit;fillColor=#ffffff;" vertex="1" parent="ra9UnzA4Zn_O7k4LG4pP-14">
          <mxGeometry y="33" width="280" height="32" as="geometry" />
        </mxCell>
        <mxCell id="ra9UnzA4Zn_O7k4LG4pP-20" value="file1" style="connectable=0;recursiveResize=0;strokeColor=inherit;fillColor=inherit;align=center;whiteSpace=wrap;html=1;" vertex="1" parent="ra9UnzA4Zn_O7k4LG4pP-19">
          <mxGeometry width="93" height="32" as="geometry">
            <mxRectangle width="93" height="32" as="alternateBounds" />
          </mxGeometry>
        </mxCell>
        <mxCell id="ra9UnzA4Zn_O7k4LG4pP-21" value="100k" style="connectable=0;recursiveResize=0;strokeColor=inherit;fillColor=inherit;align=center;whiteSpace=wrap;html=1;" vertex="1" parent="ra9UnzA4Zn_O7k4LG4pP-19">
          <mxGeometry x="93" width="94" height="32" as="geometry">
            <mxRectangle width="94" height="32" as="alternateBounds" />
          </mxGeometry>
        </mxCell>
        <mxCell id="ra9UnzA4Zn_O7k4LG4pP-22" value="" style="connectable=0;recursiveResize=0;strokeColor=inherit;fillColor=inherit;align=center;whiteSpace=wrap;html=1;" vertex="1" parent="ra9UnzA4Zn_O7k4LG4pP-19">
          <mxGeometry x="187" width="93" height="32" as="geometry">
            <mxRectangle width="93" height="32" as="alternateBounds" />
          </mxGeometry>
        </mxCell>
        <mxCell id="ra9UnzA4Zn_O7k4LG4pP-23" value="" style="shape=tableRow;horizontal=0;startSize=0;swimlaneHead=0;swimlaneBody=0;top=0;left=0;bottom=0;right=0;dropTarget=0;collapsible=0;recursiveResize=0;expand=0;fontStyle=1;strokeColor=inherit;fillColor=#EAF2D3;" vertex="1" parent="ra9UnzA4Zn_O7k4LG4pP-14">
          <mxGeometry y="65" width="280" height="31" as="geometry" />
        </mxCell>
        <mxCell id="ra9UnzA4Zn_O7k4LG4pP-24" value="file2" style="connectable=0;recursiveResize=0;whiteSpace=wrap;html=1;" vertex="1" parent="ra9UnzA4Zn_O7k4LG4pP-23">
          <mxGeometry width="93" height="31" as="geometry">
            <mxRectangle width="93" height="31" as="alternateBounds" />
          </mxGeometry>
        </mxCell>
        <mxCell id="ra9UnzA4Zn_O7k4LG4pP-25" value="50k" style="connectable=0;recursiveResize=0;whiteSpace=wrap;html=1;" vertex="1" parent="ra9UnzA4Zn_O7k4LG4pP-23">
          <mxGeometry x="93" width="94" height="31" as="geometry">
            <mxRectangle width="94" height="31" as="alternateBounds" />
          </mxGeometry>
        </mxCell>
        <mxCell id="ra9UnzA4Zn_O7k4LG4pP-26" value="" style="connectable=0;recursiveResize=0;whiteSpace=wrap;html=1;" vertex="1" parent="ra9UnzA4Zn_O7k4LG4pP-23">
          <mxGeometry x="187" width="93" height="31" as="geometry">
            <mxRectangle width="93" height="31" as="alternateBounds" />
          </mxGeometry>
        </mxCell>
        <mxCell id="ra9UnzA4Zn_O7k4LG4pP-27" value="" style="shape=tableRow;horizontal=0;startSize=0;swimlaneHead=0;swimlaneBody=0;top=0;left=0;bottom=0;right=0;dropTarget=0;collapsible=0;recursiveResize=0;expand=0;fontStyle=0;strokeColor=inherit;fillColor=#ffffff;" vertex="1" parent="ra9UnzA4Zn_O7k4LG4pP-14">
          <mxGeometry y="96" width="280" height="33" as="geometry" />
        </mxCell>
        <mxCell id="ra9UnzA4Zn_O7k4LG4pP-28" value="file3" style="connectable=0;recursiveResize=0;strokeColor=inherit;fillColor=inherit;fontStyle=0;align=center;whiteSpace=wrap;html=1;" vertex="1" parent="ra9UnzA4Zn_O7k4LG4pP-27">
          <mxGeometry width="93" height="33" as="geometry">
            <mxRectangle width="93" height="33" as="alternateBounds" />
          </mxGeometry>
        </mxCell>
        <mxCell id="ra9UnzA4Zn_O7k4LG4pP-29" value="0" style="connectable=0;recursiveResize=0;strokeColor=inherit;fillColor=inherit;fontStyle=0;align=center;whiteSpace=wrap;html=1;" vertex="1" parent="ra9UnzA4Zn_O7k4LG4pP-27">
          <mxGeometry x="93" width="94" height="33" as="geometry">
            <mxRectangle width="94" height="33" as="alternateBounds" />
          </mxGeometry>
        </mxCell>
        <mxCell id="ra9UnzA4Zn_O7k4LG4pP-30" value="" style="connectable=0;recursiveResize=0;strokeColor=inherit;fillColor=inherit;fontStyle=0;align=center;whiteSpace=wrap;html=1;" vertex="1" parent="ra9UnzA4Zn_O7k4LG4pP-27">
          <mxGeometry x="187" width="93" height="33" as="geometry">
            <mxRectangle width="93" height="33" as="alternateBounds" />
          </mxGeometry>
        </mxCell>
        <mxCell id="ra9UnzA4Zn_O7k4LG4pP-31" value="" style="shape=tableRow;horizontal=0;startSize=0;swimlaneHead=0;swimlaneBody=0;top=0;left=0;bottom=0;right=0;dropTarget=0;collapsible=0;recursiveResize=0;expand=0;fontStyle=1;strokeColor=inherit;fillColor=#EAF2D3;" vertex="1" parent="ra9UnzA4Zn_O7k4LG4pP-14">
          <mxGeometry y="129" width="280" height="31" as="geometry" />
        </mxCell>
        <mxCell id="ra9UnzA4Zn_O7k4LG4pP-32" value="" style="connectable=0;recursiveResize=0;whiteSpace=wrap;html=1;" vertex="1" parent="ra9UnzA4Zn_O7k4LG4pP-31">
          <mxGeometry width="93" height="31" as="geometry">
            <mxRectangle width="93" height="31" as="alternateBounds" />
          </mxGeometry>
        </mxCell>
        <mxCell id="ra9UnzA4Zn_O7k4LG4pP-33" value="" style="connectable=0;recursiveResize=0;whiteSpace=wrap;html=1;" vertex="1" parent="ra9UnzA4Zn_O7k4LG4pP-31">
          <mxGeometry x="93" width="94" height="31" as="geometry">
            <mxRectangle width="94" height="31" as="alternateBounds" />
          </mxGeometry>
        </mxCell>
        <mxCell id="ra9UnzA4Zn_O7k4LG4pP-34" value="" style="connectable=0;recursiveResize=0;whiteSpace=wrap;html=1;" vertex="1" parent="ra9UnzA4Zn_O7k4LG4pP-31">
          <mxGeometry x="187" width="93" height="31" as="geometry">
            <mxRectangle width="93" height="31" as="alternateBounds" />
          </mxGeometry>
        </mxCell>
        <mxCell id="ra9UnzA4Zn_O7k4LG4pP-35" value="RDS Table" style="text;html=1;strokeColor=none;fillColor=none;align=left;verticalAlign=middle;whiteSpace=wrap;rounded=0;fontStyle=1" vertex="1" parent="1">
          <mxGeometry x="860" y="860" width="90" height="35" as="geometry" />
        </mxCell>
        <mxCell id="ra9UnzA4Zn_O7k4LG4pP-36" value="" style="sketch=0;pointerEvents=1;shadow=0;dashed=0;html=1;strokeColor=none;fillColor=#005F4B;labelPosition=center;verticalLabelPosition=bottom;verticalAlign=top;align=center;outlineConnect=0;shape=mxgraph.veeam2.metadata_file;" vertex="1" parent="1">
          <mxGeometry x="690" y="1080" width="28.000000000000004" height="39" as="geometry" />
        </mxCell>
      </root>
    </mxGraphModel>
  </diagram>
  <diagram id="HA1JOThY25iEjbWYWhrd" name="Pagina-2">
    <mxGraphModel dx="714" dy="494" grid="1" gridSize="10" guides="1" tooltips="1" connect="1" arrows="1" fold="1" page="1" pageScale="1" pageWidth="827" pageHeight="1169" math="0" shadow="0">
      <root>
        <mxCell id="0" />
        <mxCell id="1" parent="0" />
      </root>
    </mxGraphModel>
  </diagram>
</mxfile>
